<?xml version="1.0" encoding="utf-8"?>
<!-- Generator: Adobe Illustrator 22.0.1, SVG Export Plug-In . SVG Version: 6.00 Build 0)  -->
<svg version="1.1" id="Layer_1" xmlns="http://www.w3.org/2000/svg" xmlns:xlink="http://www.w3.org/1999/xlink" x="0px" y="0px"
	 viewBox="0 0 48 48" style="enable-background:new 0 0 48 48;" xml:space="preserve">
<style type="text/css">
	.st0{fill:#FFFFFF;}
</style>
<path class="st0" d="M46.9,1.1c-1.4-1.4-3.7-1.4-5.1,0L24,18.9L6.2,1.1c-1.4-1.4-3.7-1.4-5.1,0s-1.4,3.7,0,5.1L18.9,24L1.1,41.8
	c-1.4,1.4-1.4,3.7,0,5.1c1.4,1.4,3.7,1.4,5.1,0L24,29.1l17.8,17.8c1.4,1.4,3.7,1.4,5.1,0c1.4-1.4,1.4-3.7,0-5.1L29.1,24L46.9,6.2
	C48.3,4.8,48.3,2.5,46.9,1.1z"/>
</svg>
