<?xml version="1.0" encoding="utf-8"?>
<!-- Generator: Adobe Illustrator 26.0.3, SVG Export Plug-In . SVG Version: 6.00 Build 0)  -->
<svg version="1.1" id="Layer_1" xmlns="http://www.w3.org/2000/svg" xmlns:xlink="http://www.w3.org/1999/xlink" x="0px" y="0px"
	 viewBox="0 0 1666.8 2500" style="enable-background:new 0 0 1666.8 2500;" xml:space="preserve">
<style type="text/css">
	.st0{fill:#0ACF83;}
	.st1{fill:#A259FF;}
	.st2{fill:#F24E1E;}
	.st3{fill:#FF7262;}
	.st4{fill:#1ABCFE;}
</style>
<path id="path0_fill" class="st0" d="M416.7,2500c230,0,416.7-186.7,416.7-416.7v-416.7H416.7c-230,0-416.7,186.7-416.7,416.7
	S186.7,2500,416.7,2500z"/>
<path id="path1_fill" class="st1" d="M0.1,1250c0-230,186.7-416.7,416.7-416.7h416.7v833.3H416.7C186.7,1666.7,0.1,1480,0.1,1250z"
	/>
<path id="path1_fill_1_" class="st2" d="M0.1,416.7C0.1,186.7,186.7,0,416.7,0h416.7v833.3H416.7C186.7,833.3,0.1,646.7,0.1,416.7z"
	/>
<path id="path2_fill" class="st3" d="M833.4,0h416.7c230,0,416.7,186.7,416.7,416.7s-186.7,416.7-416.7,416.7H833.4L833.4,0L833.4,0
	z"/>
<path id="path3_fill" class="st4" d="M1666.7,1250c0,230-186.7,416.7-416.7,416.7S833.4,1480,833.4,1250s186.7-416.7,416.7-416.7
	S1666.7,1020,1666.7,1250z"/>
</svg>
