<?xml version="1.0" encoding="utf-8"?>
<!-- Generator: Adobe Illustrator 22.0.1, SVG Export Plug-In . SVG Version: 6.00 Build 0)  -->
<svg version="1.1" id="Layer_1" xmlns="http://www.w3.org/2000/svg" xmlns:xlink="http://www.w3.org/1999/xlink" x="0px" y="0px"
	 viewBox="0 0 24 24" style="enable-background:new 0 0 24 24;" xml:space="preserve">
<style type="text/css">
	.st0{fill:#FFFFFF;}
</style>
<path class="st0" d="M1.3,20h21.4c0.7,0,1.3-0.7,1.3-1.3c0-0.7-0.7-1.3-1.3-1.3H1.3C0.7,17.3,0,18,0,18.7C0,19.3,0.7,20,1.3,20z
	 M1.3,13.3h21.4c0.7,0,1.3-0.5,1.3-1.3s-0.7-1.3-1.3-1.3H1.3C0.7,10.7,0,11.2,0,12S0.7,13.3,1.3,13.3z M0,5.3c0,0.8,0.7,1.3,1.3,1.3
	h21.4c0.7,0,1.3-0.5,1.3-1.3S23.4,4,22.8,4H1.3C0.7,4,0,4.5,0,5.3z"/>
</svg>
