<svg width="48" height="48" viewBox="0 0 48 48" fill="none" xmlns="http://www.w3.org/2000/svg">
<g clip-path="url(#clip0_115_86)">
<path d="M23.4552 0.000392611C21.4975 0.00948873 19.628 0.176446 17.9831 0.46752C13.1373 1.32362 12.2574 3.11551 12.2574 6.42006V10.7844H23.7087V12.2391H12.2574H7.95987C4.6318 12.2391 1.71765 14.2395 0.806144 18.0449C-0.24527 22.4067 -0.291906 25.1286 0.806144 29.683C1.62014 33.0732 3.56408 35.4887 6.89215 35.4887H10.8294V30.2569C10.8294 26.4772 14.0996 23.1432 17.9831 23.1432H29.421C32.605 23.1432 35.1467 20.5217 35.1467 17.3242V6.42006C35.1467 3.31669 32.5287 0.98546 29.421 0.46752C27.4539 0.140061 25.4128 -0.00870364 23.4552 0.000392611ZM17.2624 3.51052C18.4452 3.51052 19.4112 4.49225 19.4112 5.69935C19.4112 6.90217 18.4452 7.87483 17.2624 7.87483C16.0753 7.87483 15.1136 6.90217 15.1136 5.69935C15.1136 4.49225 16.0753 3.51052 17.2624 3.51052Z" fill="#2E8B57"/>
<path d="M36.5747 12.2391V17.3242C36.5747 21.2665 33.2324 24.5847 29.421 24.5847H17.9831C14.85 24.5847 12.2574 27.2661 12.2574 30.4037V41.3078C12.2574 44.4112 14.956 46.2366 17.9831 47.1269C21.6079 48.1927 25.0839 48.3854 29.421 47.1269C32.3039 46.2922 35.1467 44.6124 35.1467 41.3078V36.9435H23.7087V35.4887H35.1467H40.8723C44.2004 35.4887 45.4406 33.1673 46.598 29.683C47.7935 26.0959 47.7426 22.6464 46.598 18.0449C45.7755 14.7318 44.2046 12.2391 40.8723 12.2391H36.5747ZM30.1417 39.853C31.3288 39.8531 32.2905 40.8257 32.2905 42.0285C32.2905 43.2356 31.3288 44.2174 30.1417 44.2174C28.9589 44.2174 27.9929 43.2356 27.9929 42.0285C27.9929 40.8257 28.9589 39.853 30.1417 39.853Z" fill="#2E8B57"/>
</g>
<defs>
<clipPath id="clip0_115_86">
<rect width="48" height="48" fill="white"/>
</clipPath>
</defs>
</svg>
