<?xml version="1.0" encoding="utf-8"?>
<!-- Generator: Adobe Illustrator 26.0.3, SVG Export Plug-In . SVG Version: 6.00 Build 0)  -->
<svg version="1.1"
	 id="svg2" sodipodi:docname="python-logo-only.svg" xmlns:cc="http://creativecommons.org/ns#" xmlns:dc="http://purl.org/dc/elements/1.1/" xmlns:inkscape="http://www.inkscape.org/namespaces/inkscape" xmlns:rdf="http://www.w3.org/1999/02/22-rdf-syntax-ns#" xmlns:sodipodi="http://sodipodi.sourceforge.net/DTD/sodipodi-0.dtd" xmlns:svg="http://www.w3.org/2000/svg"
	 xmlns="http://www.w3.org/2000/svg" xmlns:xlink="http://www.w3.org/1999/xlink" x="0px" y="0px" viewBox="0 0 111.2 112.3"
	 style="enable-background:new 0 0 111.2 112.3;" xml:space="preserve">
<style type="text/css">
	.st0{fill:url(#path1948_00000097470976794030749300000016781491793325605795_);}
	.st1{fill:url(#path1950_00000140716675750388479540000001468625855468585099_);}
</style>
<linearGradient id="path1948_00000114065501949252397930000010196499671512546461_" gradientUnits="userSpaceOnUse" x1="936.4135" y1="1098.577" x2="1045.4299" y2="1192.371" gradientTransform="matrix(0.5625 0 0 0.568 -529.4668 -620.8019)">
	<stop  offset="0" style="stop-color:#5A9FD4"/>
	<stop  offset="1" style="stop-color:#306998"/>
</linearGradient>
<path id="path1948" style="fill:url(#path1948_00000114065501949252397930000010196499671512546461_);" d="M54.9,0
	c-4.6,0-9,0.4-12.8,1.1C30.8,3.1,28.7,7.3,28.7,15v10.2h26.8v3.4H28.7H18.6c-7.8,0-14.6,4.7-16.8,13.6c-2.5,10.2-2.6,16.6,0,27.3
	c1.9,7.9,6.5,13.6,14.3,13.6h9.2V70.8c0-8.8,7.7-16.7,16.8-16.7h26.8c7.5,0,13.4-6.1,13.4-13.6V15c0-7.3-6.1-12.7-13.4-13.9
	C64.3,0.3,59.5,0,54.9,0z M40.4,8.2c2.8,0,5,2.3,5,5.1s-2.3,5.1-5,5.1c-2.8,0-5-2.3-5-5.1C35.4,10.5,37.6,8.2,40.4,8.2z"/>
<linearGradient id="path1950_00000107572372655243389060000003028168685120618647_" gradientUnits="userSpaceOnUse" x1="1087.6266" y1="1249.1136" x2="1048.6969" y2="1194.0348" gradientTransform="matrix(0.5625 0 0 0.568 -529.4668 -620.8019)">
	<stop  offset="0" style="stop-color:#FFD43B"/>
	<stop  offset="1" style="stop-color:#FFE873"/>
</linearGradient>
<path id="path1950" style="fill:url(#path1950_00000107572372655243389060000003028168685120618647_);" d="M85.6,28.7v11.9
	c0,9.2-7.8,17-16.8,17H42.1c-7.3,0-13.4,6.3-13.4,13.6v25.5c0,7.3,6.3,11.5,13.4,13.6c8.5,2.5,16.6,2.9,26.8,0
	c6.8-2,13.4-5.9,13.4-13.6V86.5H55.5v-3.4h26.8h13.4c7.8,0,10.7-5.4,13.4-13.6c2.8-8.4,2.7-16.5,0-27.3c-1.9-7.8-5.6-13.6-13.4-13.6
	L85.6,28.7z M70.6,93.3c2.8,0,5,2.3,5,5.1c0,2.8-2.3,5.1-5,5.1c-2.8,0-5-2.3-5-5.1C65.5,95.6,67.8,93.3,70.6,93.3z"/>
</svg>
