<svg width="48" height="48" viewBox="0 0 48 48" fill="none" xmlns="http://www.w3.org/2000/svg">
<path d="M45.324 0L41.4681 43.195L24.1361 48L6.85174 43.2018L3 0H45.324Z" fill="#264DE4"/>
<path d="M38.1671 40.4445L41.4622 3.53238H24.162V44.3273L38.1671 40.4445Z" fill="#2965F1"/>
<path d="M11.83 19.5553L12.3049 24.8538H24.162V19.5553H11.83Z" fill="#EBEBEB"/>
<path d="M24.162 8.83096H24.1437H10.8758L11.3575 14.1295H24.162V8.83096Z" fill="#EBEBEB"/>
<path d="M24.162 38.8288V33.3161L24.1388 33.3223L18.2378 31.7289L17.8605 27.5031H14.9931H12.5417L13.284 35.8225L24.1376 38.8356L24.162 38.8288Z" fill="#EBEBEB"/>
<path d="M30.6682 24.8538L30.0532 31.7255L24.1437 33.3206V38.833L35.0059 35.8225L35.0856 34.9274L36.3307 20.9781L36.46 19.5553L37.4165 8.83096H24.1437V14.1295H31.6098L31.1277 19.5553H24.1437V24.8538H30.6682Z" fill="white"/>
</svg>
