<?xml version="1.0" encoding="utf-8"?>
<!-- Generator: Adobe Illustrator 19.0.0, SVG Export Plug-In . SVG Version: 6.00 Build 0)  -->
<svg version="1.1" id="Layer_1" xmlns="http://www.w3.org/2000/svg" xmlns:xlink="http://www.w3.org/1999/xlink" x="0px" y="0px"
	 viewBox="-379 384 48 48" style="enable-background:new -379 384 48 48;" xml:space="preserve">
<style type="text/css">
	.st0{fill:#330000;}
	.st1{fill:#FF9A00;}
</style>
<g>
	<title>Asset 104</title>
	<g id="Layer_2">
		<g id="Surfaces">
			<g id="Drawing_Surface">
				<g id="Outline_no_shadow">
					<path class="st0" d="M-370.5,384.6h31c4.7,0,8.5,3.8,8.5,8.5v29.8c0,4.7-3.8,8.5-8.5,8.5h-31c-4.7,0-8.5-3.8-8.5-8.5v-29.8
						C-379,388.4-375.2,384.6-370.5,384.6z"/>
				</g>
			</g>
		</g>
		<g id="Outlined_Mnemonics_Logos">
			<g id="Ai">
				<path class="st1" d="M-355.7,412.7h-7.4l-1.5,4.7c0,0.2-0.2,0.3-0.4,0.3h-3.8c-0.2,0-0.3-0.1-0.2-0.4l6.4-18.5
					c0.1-0.2,0.1-0.4,0.2-0.7c0.1-0.4,0.1-0.9,0.1-1.3c0-0.1,0.1-0.2,0.2-0.2c0,0,0,0,0.1,0h5.1c0.1,0,0.2,0.1,0.3,0.2l7.3,20.6
					c0.1,0.2,0,0.3-0.2,0.3h-4.2c-0.1,0-0.3-0.1-0.3-0.2L-355.7,412.7z M-362,408.6h5.1c-0.1-0.4-0.3-0.9-0.5-1.4
					c-0.2-0.5-0.4-1.1-0.5-1.7c-0.2-0.6-0.4-1.2-0.6-1.8c-0.2-0.6-0.4-1.2-0.5-1.8c-0.2-0.6-0.3-1.1-0.4-1.6h0
					c-0.2,0.9-0.4,1.7-0.7,2.6c-0.3,1-0.6,2-0.9,3C-361.4,406.8-361.7,407.8-362,408.6L-362,408.6z"/>
				<path class="st1" d="M-345,400c-0.7,0-1.3-0.2-1.8-0.7c-0.5-0.5-0.7-1.2-0.7-1.8c0-0.7,0.2-1.3,0.7-1.8c0.5-0.5,1.1-0.7,1.8-0.7
					c0.8,0,1.4,0.2,1.8,0.7c0.4,0.5,0.7,1.1,0.7,1.8c0,0.7-0.2,1.3-0.7,1.8C-343.7,399.8-344.4,400-345,400z M-347.3,417.4V402
					c0-0.2,0.1-0.3,0.3-0.3h4c0.2,0,0.3,0.1,0.3,0.3v15.4c0,0.2-0.1,0.3-0.3,0.3h-3.9C-347.2,417.7-347.3,417.6-347.3,417.4z"/>
			</g>
		</g>
	</g>
</g>
</svg>
