<?xml version="1.0" encoding="utf-8"?>
<!-- Generator: Adobe Illustrator 19.0.0, SVG Export Plug-In . SVG Version: 6.00 Build 0)  -->
<svg version="1.1" id="Layer_1" xmlns="http://www.w3.org/2000/svg" xmlns:xlink="http://www.w3.org/1999/xlink" x="0px" y="0px"
	 viewBox="-475 477 48 48" style="enable-background:new -475 477 48 48;" xml:space="preserve">
<style type="text/css">
	.st0{fill:#0ACF83;}
	.st1{fill:#A259FF;}
	.st2{fill:#F24E1E;}
	.st3{fill:#FF7262;}
	.st4{fill:#1ABCFE;}
</style>
<g>
	<path class="st0" d="M-459,525c4.4,0,8-3.6,8-8v-8h-8c-4.4,0-8,3.6-8,8S-463.4,525-459,525z"/>
	<path class="st1" d="M-467,501c0-4.4,3.6-8,8-8h8v16h-8C-463.4,509-467,505.4-467,501z"/>
	<path class="st2" d="M-467,485c0-4.4,3.6-8,8-8h8v16h-8C-463.4,493-467,489.4-467,485z"/>
	<path class="st3" d="M-451,477h8c4.4,0,8,3.6,8,8c0,4.4-3.6,8-8,8h-8V477z"/>
	<path class="st4" d="M-435,501c0,4.4-3.6,8-8,8s-8-3.6-8-8s3.6-8,8-8S-435,496.6-435,501z"/>
</g>
</svg>
