<?xml version="1.0" encoding="utf-8"?>
<!-- Generator: Adobe Illustrator 19.0.0, SVG Export Plug-In . SVG Version: 6.00 Build 0)  -->
<svg version="1.1" id="Layer_1" xmlns="http://www.w3.org/2000/svg" xmlns:xlink="http://www.w3.org/1999/xlink" x="0px" y="0px"
	 viewBox="-379 384 48 48" style="enable-background:new -379 384 48 48;" xml:space="preserve">
<style type="text/css">
	.st0{fill:#470137;}
	.st1{fill:#FF61F6;}
</style>
<g id="Layer_2_1_">
	<g id="Surfaces">
		<g id="UI_UX_Surface">
			<g id="Outline_no_shadow">
				<path class="st0" d="M-370.5,384.6h31c4.7,0,8.5,3.8,8.5,8.5v29.8c0,4.7-3.8,8.5-8.5,8.5h-31c-4.7,0-8.5-3.8-8.5-8.5v-29.8
					C-379,388.4-375.2,384.6-370.5,384.6z"/>
			</g>
		</g>
	</g>
	<g id="Outlined_Mnemonics_Logos">
		<g id="Xd">
			<path class="st1" d="M-353.8,396.9l-6,9.9l6.4,10.5c0,0.1,0.1,0.2,0,0.2c0,0.1-0.1,0-0.2,0h-4.6c-0.3,0-0.5,0-0.7-0.2
				c-0.4-0.8-0.9-1.7-1.3-2.5c-0.4-0.8-0.9-1.7-1.4-2.5s-1-1.7-1.4-2.6h0c-0.4,0.9-0.9,1.7-1.3,2.6c-0.5,0.9-0.9,1.7-1.4,2.6
				c-0.5,0.8-0.9,1.7-1.4,2.5c-0.1,0.2-0.2,0.2-0.5,0.2h-4.4c-0.1,0-0.1,0-0.1-0.1c0-0.1,0-0.2,0-0.2l6.2-10.2l-6.1-10.3
				c-0.1-0.1-0.1-0.2,0-0.2c0-0.1,0.1-0.1,0.2-0.1h4.5c0.1,0,0.2,0,0.3,0c0.1,0,0.1,0.1,0.2,0.2c0.4,0.9,0.8,1.7,1.3,2.6
				c0.5,0.9,0.9,1.7,1.4,2.5c0.5,0.8,0.9,1.7,1.3,2.5h0c0.4-0.9,0.9-1.7,1.3-2.6s0.9-1.7,1.4-2.5c0.5-0.8,0.9-1.7,1.3-2.5
				c0-0.1,0.1-0.2,0.1-0.2c0.1,0,0.2-0.1,0.3,0h4.2c0.1,0,0.2,0,0.2,0.1C-353.7,396.8-353.7,396.9-353.8,396.9L-353.8,396.9z"/>
			<path class="st1" d="M-344.5,418c-1.5,0-3-0.3-4.3-0.9c-1.3-0.6-2.3-1.5-3-2.7c-0.7-1.2-1.1-2.7-1.1-4.6c0-1.5,0.4-2.9,1.1-4.2
				c0.8-1.3,1.9-2.4,3.2-3.1c1.4-0.8,3.1-1.2,5.1-1.2c0.1,0,0.2,0,0.4,0c0.2,0,0.4,0,0.6,0v-6.3c0-0.1,0.1-0.2,0.2-0.2h4.1
				c0.1,0,0.2,0.1,0.2,0.1c0,0,0,0,0,0v19c0,0.4,0,0.8,0,1.2c0,0.4,0.1,0.8,0.1,1.2c0,0.1-0.1,0.3-0.2,0.3c-1,0.4-2.1,0.8-3.3,1
				C-342.5,417.9-343.5,418-344.5,418z M-342.6,414v-8.8c-0.2,0-0.4-0.1-0.5-0.1c-0.2,0-0.4,0-0.7,0c-0.8,0-1.6,0.2-2.3,0.5
				c-0.7,0.3-1.3,0.8-1.7,1.5c-0.4,0.6-0.7,1.5-0.7,2.5c0,0.7,0.1,1.4,0.3,2.1c0.2,0.5,0.5,1,0.9,1.4c0.4,0.4,0.8,0.6,1.4,0.8
				c0.5,0.2,1.1,0.3,1.7,0.3c0.3,0,0.6,0,0.8,0C-343,414.1-342.8,414.1-342.6,414z"/>
		</g>
	</g>
</g>
</svg>
