<svg width="48" height="48" viewBox="0 0 48 48" fill="none" xmlns="http://www.w3.org/2000/svg">
<g clip-path="url(#clip0_135_15)">
<path d="M45 0H3C1.34315 0 0 1.34315 0 3V45C0 46.6569 1.34315 48 3 48H45C46.6569 48 48 46.6569 48 45V3C48 1.34315 46.6569 0 45 0Z" fill="url(#paint0_linear_135_15)"/>
<path d="M37.7143 24.1197C37.7143 23.7019 37.4057 23.4611 37.027 23.5807L10.973 31.8452C10.5935 31.9656 10.2857 32.4023 10.2857 32.8193V41.266C10.2857 41.6836 10.5935 41.9253 10.973 41.8049L37.027 33.5412C37.4057 33.4207 37.7143 32.984 37.7143 32.5662V24.1197Z" fill="url(#paint1_linear_135_15)"/>
<path d="M10.2857 23.8974C10.2857 24.3151 10.5935 24.7518 10.9729 24.8724L37.0271 33.1369C37.4065 33.2574 37.7143 33.0158 37.7143 32.5989V24.152C37.7143 23.735 37.4065 23.2983 37.0271 23.1779L10.9729 14.9132C10.5935 14.7928 10.2857 15.0336 10.2857 15.4513V23.8974ZM37.7143 6.78418C37.7143 6.36643 37.4057 6.12483 37.027 6.24525L10.973 14.5089C10.5935 14.6293 10.2857 15.066 10.2857 15.4839V23.9304C10.2857 24.3481 10.5935 24.589 10.973 24.4693L37.027 16.2049C37.4057 16.0845 37.7143 15.6478 37.7143 15.2308V6.78418Z" fill="#FF9800"/>
</g>
<defs>
<linearGradient id="paint0_linear_135_15" x1="2400" y1="0" x2="2400" y2="4800" gradientUnits="userSpaceOnUse">
<stop stop-color="#4D4D4D"/>
<stop offset="1" stop-color="#444444"/>
</linearGradient>
<linearGradient id="paint1_linear_135_15" x1="1522.07" y1="1295.18" x2="1628.72" y2="492.513" gradientUnits="userSpaceOnUse">
<stop stop-color="#FF9700"/>
<stop offset="0.53" stop-color="#F48E00"/>
<stop offset="1" stop-color="#CE6E00"/>
</linearGradient>
<clipPath id="clip0_135_15">
<rect width="48" height="48" fill="white"/>
</clipPath>
</defs>
</svg>
