<?xml version="1.0" encoding="utf-8"?>
<!-- Generator: Adobe Illustrator 19.0.0, SVG Export Plug-In . SVG Version: 6.00 Build 0)  -->
<svg version="1.1" id="Layer_1" xmlns="http://www.w3.org/2000/svg" xmlns:xlink="http://www.w3.org/1999/xlink" x="0px" y="0px"
	 viewBox="-352 316.5 48 48" style="enable-background:new -352 316.5 48 48;" xml:space="preserve">
<style type="text/css">
	.st0{fill:#4FBCF4;}
</style>
<g>
	<title>Cours-Articulate-360</title>
	<g id="Calque_2">
		<g id="Calque_1-2">
			<path class="st0" d="M-308.9,348.3c0,4.7,0,9.3,0,14c0,0.4,0,0.7-0.1,1.1c-1.2,0.2-7.1,0.1-7.8,0c-0.2-1.1,0-2.3-0.2-3.5
				c-0.4,0.3-0.7,0.6-1.1,0.8c-2.4,2-5.2,3.3-8.3,3.7c-1.6,0.2-3.1,0.1-4.7-0.1c-1.7-0.2-3.4-0.7-5-1.4c-1.8-0.8-3.4-1.8-4.9-3.1
				c-2-1.8-3.7-4-4.7-6.5c-1.2-2.9-1.7-6.1-1.5-9.2c0.3-3.3,1.2-6.3,3.1-9c1.6-2.4,3.7-4.4,6.2-5.8c1.8-1,3.6-1.6,5.6-2
				c1.9-0.4,3.8-0.5,5.8-0.3c2.2,0.2,4.4,0.7,6.5,1.6c2,0.9,3.9,2.2,5.5,3.7c1.9,1.9,3.4,4.2,4.3,6.7c0.6,1.7,1,3.5,1.1,5.3
				C-309,345.7-308.9,347-308.9,348.3z M-316.8,346.5c0.2-2.2-0.3-4.4-1.2-6.4c-0.9-1.9-2.3-3.6-4.1-4.7c-1.9-1.2-4-1.7-6.2-1.7
				c-3.4,0.1-6.2,1.5-8.3,4.2c-2.5,3.3-3.1,7-2.2,11c0.5,2.4,1.8,4.5,3.7,6.1c2,1.7,4.4,2.6,7.1,2.5c2.1,0.1,4.2-0.5,5.9-1.7
				C-318.7,353.7-317.1,350.5-316.8,346.5L-316.8,346.5z"/>
			<polygon class="st0" points="-309.8,316.5 -309.8,322.6 -346.2,322.7 -346.2,316.5 			"/>
		</g>
	</g>
</g>
</svg>
