<?xml version="1.0" encoding="utf-8"?>
<!-- Generator: Adobe Illustrator 19.0.0, SVG Export Plug-In . SVG Version: 6.00 Build 0)  -->
<svg version="1.1" id="Layer_1" xmlns="http://www.w3.org/2000/svg" xmlns:xlink="http://www.w3.org/1999/xlink" x="0px" y="0px"
	 viewBox="-379 384 48 48" style="enable-background:new -379 384 48 48;" xml:space="preserve">
<style type="text/css">
	.st0{fill:#49021F;}
	.st1{fill:#FF3366;}
</style>
<g>
	<title>Adobe InDesign CC logo</title>
	<path class="st0" d="M-370.5,384.6h31c4.7,0,8.5,3.8,8.5,8.5v29.8c0,4.7-3.8,8.5-8.5,8.5h-31c-4.7,0-8.5-3.8-8.5-8.5v-29.8
		C-379,388.4-375.2,384.6-370.5,384.6z"/>
	<g id="vlpa">
		<g id="vlpb">
			<path class="st1" d="M-361.6,396.8v20.6c0,0.2-0.1,0.3-0.3,0.3h-3.9c-0.2,0-0.3-0.1-0.3-0.3v-20.6c0-0.2,0.1-0.3,0.3-0.3h3.9
				C-361.7,396.6-361.6,396.6-361.6,396.8C-361.6,396.8-361.6,396.8-361.6,396.8z"/>
			<path class="st1" d="M-350,418c-1.5,0-3-0.3-4.3-0.9c-1.3-0.6-2.3-1.5-3-2.7c-0.7-1.2-1.1-2.7-1.1-4.6c0-1.5,0.4-2.9,1.1-4.2
				c0.8-1.3,1.9-2.4,3.2-3.1c1.4-0.8,3.1-1.2,5.1-1.2c0.1,0,0.2,0,0.4,0c0.2,0,0.4,0,0.6,0v-6.3c0-0.1,0.1-0.2,0.2-0.2h4.1
				c0.1,0,0.2,0.1,0.2,0.1v0v19c0,0.4,0,0.8,0,1.2c0,0.4,0.1,0.8,0.1,1.2c0,0.1-0.1,0.3-0.2,0.3c-1,0.4-2.1,0.8-3.3,1
				C-347.9,417.9-349,418-350,418L-350,418z M-348,414v-8.8c-0.2,0-0.4-0.1-0.5-0.1c-0.2,0-0.4,0-0.7,0c-0.8,0-1.6,0.2-2.3,0.5
				c-0.7,0.3-1.3,0.8-1.7,1.5c-0.4,0.6-0.7,1.5-0.7,2.5c0,0.7,0.1,1.4,0.3,2.1c0.2,0.5,0.5,1,0.9,1.4c0.4,0.4,0.8,0.6,1.4,0.8
				c0.5,0.2,1.1,0.3,1.7,0.3c0.3,0,0.6,0,0.8,0C-348.5,414.1-348.3,414.1-348,414L-348,414z"/>
		</g>
	</g>
</g>
</svg>
