<?xml version="1.0" encoding="utf-8"?>
<!-- Generator: Adobe Illustrator 19.0.0, SVG Export Plug-In . SVG Version: 6.00 Build 0)  -->
<svg version="1.1" id="Layer_1" xmlns="http://www.w3.org/2000/svg" xmlns:xlink="http://www.w3.org/1999/xlink" x="0px" y="0px"
	 viewBox="-475 477 48 48" style="enable-background:new -475 477 48 48;" xml:space="preserve">
<style type="text/css">
	.st0{clip-path:url(#SVGID_2_);}
	.st1{fill:url(#SVGID_3_);}
	.st2{fill:url(#SVGID_4_);}
</style>
<g>
	<defs>
		<rect id="SVGID_1_" x="-475" y="477" width="48" height="48"/>
	</defs>
	<clipPath id="SVGID_2_">
		<use xlink:href="#SVGID_1_"  style="overflow:visible;"/>
	</clipPath>
	<g class="st0">
		
			<linearGradient id="SVGID_3_" gradientUnits="userSpaceOnUse" x1="-476.0605" y1="525.4479" x2="-449.655" y2="502.9468" gradientTransform="matrix(1 0 0 -1 0 1004)">
			<stop  offset="0" style="stop-color:#5A9FD4"/>
			<stop  offset="1" style="stop-color:#306998"/>
		</linearGradient>
		<path class="st1" d="M-451.3,477c-2,0-3.8,0.2-5.5,0.5c-4.8,0.9-5.7,2.6-5.7,6v4.4h11.5v1.5h-11.5h-4.3c-3.3,0-6.2,2-7.2,5.8
			c-1.1,4.4-1.1,7.1,0,11.6c0.8,3.4,2.8,5.8,6.1,5.8h3.9v-5.2c0-3.8,3.3-7.1,7.2-7.1h11.4c3.2,0,5.7-2.6,5.7-5.8v-10.9
			c0-3.1-2.6-5.4-5.7-6C-447.3,477.1-449.3,477-451.3,477z M-457.5,480.5c1.2,0,2.1,1,2.1,2.2c0,1.2-1,2.2-2.1,2.2
			c-1.2,0-2.1-1-2.1-2.2C-459.6,481.5-458.7,480.5-457.5,480.5z"/>
		
			<linearGradient id="SVGID_4_" gradientUnits="userSpaceOnUse" x1="-439.5073" y1="489.1663" x2="-448.9805" y2="502.4411" gradientTransform="matrix(1 0 0 -1 0 1004)">
			<stop  offset="0" style="stop-color:#FFD43B"/>
			<stop  offset="1" style="stop-color:#FFE873"/>
		</linearGradient>
		<path class="st2" d="M-438.2,489.2v5.1c0,3.9-3.3,7.3-7.2,7.3h-11.4c-3.1,0-5.7,2.7-5.7,5.8v10.9c0,3.1,2.7,4.9,5.7,5.8
			c3.6,1.1,7.1,1.3,11.4,0c2.9-0.8,5.7-2.5,5.7-5.8v-4.4H-451v-1.5h11.4h5.7c3.3,0,4.6-2.3,5.7-5.8c1.2-3.6,1.1-7,0-11.6
			c-0.8-3.3-2.4-5.8-5.7-5.8H-438.2z M-444.6,516.9c1.2,0,2.1,1,2.1,2.2c0,1.2-1,2.2-2.1,2.2c-1.2,0-2.1-1-2.1-2.2
			C-446.7,517.8-445.8,516.9-444.6,516.9z"/>
	</g>
</g>
</svg>
