<?xml version="1.0" encoding="utf-8"?>
<!-- Generator: Adobe Illustrator 19.0.0, SVG Export Plug-In . SVG Version: 6.00 Build 0)  -->
<svg version="1.1" id="Layer_1" xmlns="http://www.w3.org/2000/svg" xmlns:xlink="http://www.w3.org/1999/xlink" x="0px" y="0px"
	 viewBox="-379 384 48 48" style="enable-background:new -379 384 48 48;" xml:space="preserve">
<style type="text/css">
	.st0{fill:#001E36;}
	.st1{fill:#31A8FF;}
</style>
<g id="Layer_2_1_">
	<g id="Surfaces">
		<g id="Photo_Surface">
			<g id="Outline_no_shadow">
				<path class="st0" d="M-370.5,384.6h31c4.7,0,8.5,3.8,8.5,8.5v29.8c0,4.7-3.8,8.5-8.5,8.5h-31c-4.7,0-8.5-3.8-8.5-8.5v-29.8
					C-379,388.4-375.2,384.6-370.5,384.6z"/>
			</g>
		</g>
	</g>
	<g id="Outlined_Mnemonics_Logos">
		<g id="Ps">
			<path class="st1" d="M-368.2,417.4v-20.6c0-0.1,0.1-0.2,0.2-0.2c0.3,0,0.7,0,1.1,0c0.5,0,1,0,1.5,0c0.5,0,1.1,0,1.7,0
				c0.6,0,1.2,0,1.8,0c1.6,0,3,0.2,4.1,0.6c1,0.3,1.9,0.9,2.7,1.6c0.6,0.6,1.1,1.4,1.5,2.3c0.3,0.8,0.5,1.7,0.5,2.6
				c0,1.7-0.4,3.1-1.2,4.3c-0.8,1.1-1.9,2-3.2,2.4c-1.4,0.5-2.9,0.7-4.5,0.7c-0.5,0-0.8,0-1,0c-0.2,0-0.5,0-0.9,0v6.4
				c0,0.1-0.1,0.3-0.2,0.3c0,0,0,0-0.1,0h-3.8C-368.1,417.7-368.2,417.6-368.2,417.4z M-363.8,400.5v6.7c0.3,0,0.5,0,0.8,0h1.1
				c0.8,0,1.6-0.1,2.3-0.4c0.6-0.2,1.2-0.6,1.6-1.1c0.4-0.5,0.6-1.2,0.6-2.1c0-0.6-0.1-1.2-0.5-1.8c-0.3-0.5-0.8-0.9-1.4-1.1
				c-0.7-0.3-1.5-0.4-2.4-0.4c-0.5,0-1,0-1.4,0C-363.4,400.4-363.7,400.5-363.8,400.5L-363.8,400.5z"/>
			<path class="st1" d="M-340.6,406c-0.6-0.3-1.2-0.5-1.9-0.7c-0.7-0.2-1.5-0.3-2.2-0.3c-0.4,0-0.8,0-1.2,0.1
				c-0.3,0.1-0.5,0.2-0.6,0.4c-0.1,0.2-0.2,0.4-0.2,0.5s0.1,0.4,0.2,0.5c0.2,0.2,0.4,0.4,0.7,0.5c0.5,0.2,0.9,0.5,1.4,0.7
				c1.1,0.4,2.1,0.9,3.1,1.5c0.7,0.4,1.2,1,1.6,1.7c0.3,0.6,0.5,1.3,0.5,2.1c0,0.9-0.3,1.9-0.8,2.7c-0.6,0.8-1.3,1.4-2.2,1.8
				c-1,0.4-2.2,0.6-3.6,0.6c-0.9,0-1.8-0.1-2.7-0.3c-0.7-0.1-1.4-0.3-2-0.6c-0.1-0.1-0.2-0.2-0.2-0.4v-3.5c0-0.1,0-0.1,0.1-0.2
				s0.1,0,0.2,0c0.8,0.5,1.6,0.8,2.5,1c0.8,0.2,1.6,0.3,2.4,0.3c0.8,0,1.3-0.1,1.7-0.3c0.3-0.1,0.5-0.5,0.5-0.8
				c0-0.3-0.2-0.5-0.5-0.8c-0.3-0.3-1-0.6-2-0.9c-1-0.4-2-0.8-2.8-1.4c-0.6-0.4-1.1-1-1.5-1.7c-0.3-0.6-0.5-1.3-0.5-2
				c0-0.9,0.2-1.7,0.7-2.4c0.5-0.8,1.2-1.4,2.1-1.8c0.9-0.5,2.1-0.7,3.5-0.7c0.8,0,1.7,0.1,2.5,0.2c0.6,0.1,1.2,0.2,1.7,0.5
				c0.1,0,0.2,0.1,0.2,0.2c0,0.1,0,0.2,0,0.2v3.3c0,0.1,0,0.2-0.1,0.2C-340.4,406-340.5,406-340.6,406z"/>
		</g>
	</g>
</g>
</svg>
