<svg xmlns="http://www.w3.org/2000/svg" viewBox="0 0 294.23 369.49"><defs><style>.cls-1{fill:#4fbcf4;}</style></defs><title>Cours-Articulate-360</title><g id="Calque_2" data-name="Calque 2"><g id="Calque_1-2" data-name="Calque 1"><path class="cls-1" d="M294.16,244.79c.13,36,.06,71.92,0,107.87,0,2.78-.24,5.56-.39,8.62-9.37,1.37-54.43,1.05-60-.36-1.78-8.59.25-17.56-1.21-27-3,2.44-5.64,4.42-8.13,6.52-18.52,15.69-39.71,25.68-63.85,28.28a157.38,157.38,0,0,1-36.08-.63,145.22,145.22,0,0,1-38.83-10.53A139.19,139.19,0,0,1,48,333.89a137.36,137.36,0,0,1-36.21-50.11A150.51,150.51,0,0,1,.5,213.05c2-25.13,9.5-48.48,23.88-69.55A141.7,141.7,0,0,1,72.24,99.06c13.51-7.62,28.08-12.23,43.16-15.58,14.72-3.27,29.62-3.75,44.43-2.56a152.28,152.28,0,0,1,49.92,12.69,142.11,142.11,0,0,1,41.95,28.57,138.22,138.22,0,0,1,33.13,51.4,129.4,129.4,0,0,1,8.31,40.79C293.46,224.51,294.13,234.66,294.16,244.79Zm-61.22-13.71a96.08,96.08,0,0,0-9.25-48.88,83.92,83.92,0,0,0-31.86-36.1C177.19,137,161.15,133,143.94,133.39c-26.23.67-47.55,11.46-63.51,32-19.56,25.23-23.51,54-16.67,84.5,4.19,18.68,13.47,34.75,28.18,47.21,15.53,13.16,33.61,19.81,54.93,19.29a77.17,77.17,0,0,0,45.58-12.76C218.75,286.64,230.71,261.42,232.94,231.08Z"/><polygon class="cls-1" points="287.16 0 287.23 47.17 7.26 47.67 7 0 287.16 0"/></g></g></svg>