<?xml version="1.0" encoding="utf-8"?>
<!-- Generator: Adobe Illustrator 19.0.0, SVG Export Plug-In . SVG Version: 6.00 Build 0)  -->
<svg version="1.1" id="Layer_1" xmlns="http://www.w3.org/2000/svg" xmlns:xlink="http://www.w3.org/1999/xlink" x="0px" y="0px"
	 viewBox="-475 477 48 48" style="enable-background:new -475 477 48 48;" xml:space="preserve">
<style type="text/css">
	.st0{clip-path:url(#SVGID_2_);}
	.st1{fill:#FF7618;}
	.st2{fill:url(#SVGID_3_);}
	.st3{fill:#FFE0CB;}
</style>
<g>
	<defs>
		<rect id="SVGID_1_" x="-475" y="477" width="48" height="48"/>
	</defs>
	<clipPath id="SVGID_2_">
		<use xlink:href="#SVGID_1_"  style="overflow:visible;"/>
	</clipPath>
	<g class="st0">
		<path class="st1" d="M-451,525c13.3,0,24-10.7,24-24c0-13.3-10.7-24-24-24s-24,10.7-24,24C-475,514.3-464.3,525-451,525z"/>
		
			<radialGradient id="SVGID_3_" cx="-933.1852" cy="985.1852" r="1" gradientTransform="matrix(28.249 0 0 -28.249 25906.1582 28338.7324)" gradientUnits="userSpaceOnUse">
			<stop  offset="0" style="stop-color:#3A2A1D"/>
			<stop  offset="0.77" style="stop-color:#241405"/>
		</radialGradient>
		<path class="st2" d="M-451,522.5c11.9,0,21.5-9.6,21.5-21.5c0-11.9-9.6-21.5-21.5-21.5c-11.9,0-21.5,9.6-21.5,21.5
			C-472.5,512.9-462.9,522.5-451,522.5z"/>
		<path class="st3" d="M-451,486.8c1.7,0,3.3,1,4,2.5c-0.4,0.2-0.8,0.5-1.1,0.9c-1.6,1.6-4.2,1.6-5.8,0c-0.3-0.3-0.7-0.6-1.1-0.9
			C-454.3,487.7-452.7,486.8-451,486.8z M-446.5,490.8c0,0.2,0,0.3,0,0.5c0,2.9,2.3,5.3,5.2,5.3c0.2,0,0.3,0,0.5,0
			c-0.1,0.2-0.3,0.3-0.4,0.5c-2.2,2.2-2.2,5.7,0,7.9c0.2,0.2,0.3,0.3,0.4,0.5c-0.2,0-0.3,0-0.5,0c-2.9,0-5.2,2.3-5.2,5.2
			c0,0.2,0,0.3,0,0.5c-0.2-0.1-0.3-0.3-0.5-0.4c-2.2-2.2-5.7-2.2-7.9,0c-0.2,0.2-0.3,0.3-0.5,0.4c0-0.2,0-0.3,0-0.5
			c0-2.9-2.4-5.2-5.2-5.2c-0.2,0-0.3,0-0.5,0c0.1-0.2,0.3-0.3,0.4-0.5c2.2-2.2,2.2-5.7,0-7.9l0,0c-0.2-0.2-0.3-0.3-0.4-0.5
			c0.2,0,0.3,0,0.5,0c2.9,0,5.2-2.3,5.2-5.2c0-0.2,0-0.3,0-0.5c0.2,0.1,0.3,0.3,0.5,0.4c2.2,2.2,5.7,2.2,7.9,0c0,0,0,0,0,0
			C-446.9,491.1-446.7,490.9-446.5,490.8L-446.5,490.8z M-439.3,497c2.2,1.1,3.2,3.8,2.1,6c-0.4,0.9-1.2,1.6-2.1,2.1
			c-0.2-0.4-0.5-0.8-0.9-1.1c-1.6-1.6-1.6-4.2,0-5.8C-439.8,497.8-439.5,497.4-439.3,497L-439.3,497z M-447,512.8
			c-1.1,2.2-3.8,3.2-6,2.1c-0.9-0.4-1.6-1.2-2.1-2.1c0.4-0.2,0.8-0.5,1.1-0.9c1.6-1.6,4.2-1.6,5.8,0
			C-447.7,512.2-447.4,512.5-447,512.8L-447,512.8z M-462.7,505.1c-2.2-1.1-3.2-3.8-2.1-6c0.4-0.9,1.2-1.6,2.1-2.1
			c0.2,0.4,0.5,0.8,0.9,1.1c1.6,1.6,1.6,4.2,0,5.8c0,0,0,0,0,0C-462.2,504.3-462.5,504.6-462.7,505.1z M-451,516
			c2,0,3.8-1.1,4.7-2.9c2.9,1.2,6.2-0.1,7.4-3c0.6-1.4,0.6-3,0-4.4c2.6-1.3,3.7-4.4,2.4-7c-0.5-1-1.3-1.9-2.4-2.4
			c1.2-2.9-0.1-6.2-3-7.4c-1.4-0.6-3-0.6-4.4,0c-1.3-2.6-4.4-3.7-7-2.4c-1.1,0.5-1.9,1.4-2.4,2.4c-2.9-1.2-6.2,0.1-7.4,3
			c-0.6,1.4-0.6,3,0,4.4c-2.6,1.3-3.7,4.4-2.4,7c0.5,1,1.3,1.9,2.4,2.4c-1.2,2.9,0.1,6.2,3,7.4c1.4,0.6,3,0.6,4.4,0
			C-454.8,514.9-453,516-451,516z M-445.8,511.7c0.1-0.3,0.1-0.6,0.1-0.9c0-2.5,2-4.5,4.5-4.5c0.3,0,0.6,0,0.9-0.1
			c1,2.1,0,4.5-2,5.5C-443.5,512.2-444.7,512.2-445.8,511.7L-445.8,511.7z M-440.4,495.9c-0.3-0.1-0.6-0.1-0.9-0.1
			c-2.5,0-4.5-2-4.5-4.5c0-0.3,0-0.6-0.1-0.9c2.1-1,4.5,0,5.5,2C-439.9,493.5-439.9,494.8-440.4,495.9L-440.4,495.9z M-456.2,490.4
			c-0.1,0.3-0.1,0.6-0.1,0.9c0,2.5-2,4.5-4.5,4.5c-0.3,0-0.6,0-0.9,0.1c-1-2.1,0-4.5,2-5.5C-458.5,489.9-457.3,489.9-456.2,490.4
			L-456.2,490.4z M-461.6,506.2c0.3,0.1,0.6,0.1,0.9,0.1c2.5,0,4.5,2,4.5,4.5c0,0.3,0,0.6,0.1,0.9c-2.1,1-4.5,0-5.5-2
			C-462.1,508.5-462.2,507.3-461.6,506.2L-461.6,506.2z"/>
	</g>
</g>
</svg>
