<svg width="48" height="48" viewBox="0 0 48 48" fill="none" xmlns="http://www.w3.org/2000/svg">
<g clip-path="url(#clip0_135_2)">
<path d="M33.6686 7.54285L47.6571 19.2686L42.6514 29.4857L34.1486 27.1543H26.88L33.6686 7.54285Z" fill="url(#paint0_linear_135_2)"/>
<path d="M19.5429 15.1543L16.8 29.4857L16.5257 34.4229L9.73714 37.3714L0 38.4L2.94857 7.33714L20.5029 0L31.3371 7.13143L19.5429 15.1543Z" fill="url(#paint1_linear_135_2)"/>
<path d="M19.5429 15.1543L20.8457 42.8572L16.4571 48L0 38.4L13.5086 18.24L19.5429 15.1543Z" fill="url(#paint2_linear_135_2)"/>
<path d="M37.6457 13.0971H20.9828L35.7257 0L37.6457 13.0971Z" fill="url(#paint3_linear_135_2)"/>
<path d="M48 42.9257L33.3257 47.9314L13.8514 42.4457L19.5429 15.1543L21.8057 13.0971L33.6686 12L32.5714 23.9314L42.0343 20.2971L48 42.9257Z" fill="url(#paint4_linear_135_2)"/>
<path d="M38.8115 9.1886H9.1886V38.8115H38.8115V9.1886Z" fill="black"/>
<path d="M23.1086 33.2571H12V35.1086H23.1086V33.2571Z" fill="white"/>
<path d="M11.8629 13.0972H16.8686C19.8171 13.0972 21.6 14.8115 21.6 17.3486V17.4172C21.6 20.2286 19.4057 21.7372 16.6629 21.7372H14.6057V25.3715H11.9314V13.0972H11.8629ZM16.7314 19.2686C18.1029 19.2686 18.8571 18.4457 18.8571 17.4172V17.3486C18.8571 16.1143 18.0343 15.4972 16.6629 15.4972H14.6057V19.2686H16.7314Z" fill="white"/>
<path d="M22.6971 19.2686C22.6971 15.7715 25.3029 12.8915 29.0743 12.8915C31.4057 12.8915 32.7771 13.6458 33.9429 14.8115L32.2286 16.8001C31.2686 15.9086 30.3086 15.4286 29.0743 15.4286C27.0171 15.4286 25.5086 17.1429 25.5086 19.2686V19.2001C25.5086 21.3258 26.9486 23.0401 29.0743 23.0401C30.4457 23.0401 31.3371 22.4915 32.2971 21.6001L34.0114 23.3143C32.7771 24.6858 31.3371 25.5086 29.0057 25.5086C25.3714 25.5772 22.6971 22.7658 22.6971 19.2686Z" fill="white"/>
</g>
<defs>
<linearGradient id="paint0_linear_135_2" x1="17.1418" y1="18.5459" x2="45.7073" y2="18.5459" gradientUnits="userSpaceOnUse">
<stop stop-color="#21D789"/>
<stop offset="1" stop-color="#07C3F2"/>
</linearGradient>
<linearGradient id="paint1_linear_135_2" x1="-16.8407" y1="40.5124" x2="41.9792" y2="-2.90832" gradientUnits="userSpaceOnUse">
<stop offset="0.0107527" stop-color="#FCF84A"/>
<stop offset="0.1116" stop-color="#A7EB62"/>
<stop offset="0.2056" stop-color="#5FE077"/>
<stop offset="0.2727" stop-color="#32DA84"/>
<stop offset="0.3065" stop-color="#21D789"/>
<stop offset="0.5768" stop-color="#21D789"/>
<stop offset="0.5968" stop-color="#21D789"/>
<stop offset="0.686" stop-color="#20D68C"/>
<stop offset="0.7627" stop-color="#1ED497"/>
<stop offset="0.8348" stop-color="#19D1A9"/>
<stop offset="0.904" stop-color="#13CCC2"/>
<stop offset="0.9707" stop-color="#0BC6E1"/>
<stop offset="1" stop-color="#07C3F2"/>
</linearGradient>
<linearGradient id="paint2_linear_135_2" x1="6.39778" y1="53.2482" x2="16.2082" y2="22.4639" gradientUnits="userSpaceOnUse">
<stop stop-color="#21D789"/>
<stop offset="0.1638" stop-color="#24D788"/>
<stop offset="0.3047" stop-color="#2FD886"/>
<stop offset="0.4371" stop-color="#41DA82"/>
<stop offset="0.5644" stop-color="#5ADC7D"/>
<stop offset="0.6881" stop-color="#7AE077"/>
<stop offset="0.809" stop-color="#A1E36E"/>
<stop offset="0.9254" stop-color="#CFE865"/>
<stop offset="1" stop-color="#F1EB5E"/>
</linearGradient>
<linearGradient id="paint3_linear_135_2" x1="19.3888" y1="26.4844" x2="40.7375" y2="-2.21883" gradientUnits="userSpaceOnUse">
<stop stop-color="#21D789"/>
<stop offset="0.0608105" stop-color="#24D788"/>
<stop offset="0.1131" stop-color="#2FD886"/>
<stop offset="0.1622" stop-color="#41DA82"/>
<stop offset="0.2094" stop-color="#5ADD7D"/>
<stop offset="0.2548" stop-color="#79E077"/>
<stop offset="0.2581" stop-color="#7CE076"/>
<stop offset="0.4986" stop-color="#8CE173"/>
<stop offset="0.9247" stop-color="#B2E56B"/>
</linearGradient>
<linearGradient id="paint4_linear_135_2" x1="52.0384" y1="30.1369" x2="9.02257" y2="29.7385" gradientUnits="userSpaceOnUse">
<stop offset="0.3871" stop-color="#FCF84A"/>
<stop offset="0.5358" stop-color="#ECF451"/>
<stop offset="0.8259" stop-color="#C2E964"/>
<stop offset="0.9247" stop-color="#B2E56B"/>
</linearGradient>
<clipPath id="clip0_135_2">
<rect width="48" height="48" fill="white"/>
</clipPath>
</defs>
</svg>
