<?xml version="1.0" encoding="utf-8"?>
<!-- Generator: Adobe Illustrator 19.0.0, SVG Export Plug-In . SVG Version: 6.00 Build 0)  -->
<svg version="1.1" id="Layer_1" xmlns="http://www.w3.org/2000/svg" xmlns:xlink="http://www.w3.org/1999/xlink" x="0px" y="0px"
	 viewBox="-475 477 48 48" style="enable-background:new -475 477 48 48;" xml:space="preserve">
<style type="text/css">
	.st0{clip-path:url(#SVGID_2_);}
	.st1{fill:#470137;}
	.st2{fill:#FF61F6;}
</style>
<g>
	<defs>
		<rect id="SVGID_1_" x="-475" y="477.6" width="48" height="46.8"/>
	</defs>
	<clipPath id="SVGID_2_">
		<use xlink:href="#SVGID_1_"  style="overflow:visible;"/>
	</clipPath>
	<g class="st0">
		<path class="st1" d="M-466.5,477.6h31c4.7,0,8.5,3.8,8.5,8.5v29.8c0,4.7-3.8,8.5-8.5,8.5h-31c-4.7,0-8.5-3.8-8.5-8.5v-29.8
			C-475,481.4-471.2,477.6-466.5,477.6z"/>
		<path class="st2" d="M-470.4,510.4V490c0-0.1,0.1-0.2,0.2-0.3h0c0.3,0,0.8,0,1.3,0c0.6,0,1.3,0,2.1,0c0.8,0,1.6,0,2.5,0
			c2.4,0,4.5,0.4,6.1,1.3c1.5,0.8,2.8,2.1,3.6,3.6c0.8,1.5,1.2,3.3,1.2,5.3c0,1.4-0.2,2.8-0.6,4.1c-0.4,1.1-1,2.2-1.7,3.1
			c-0.7,0.8-1.5,1.6-2.5,2.1c-0.9,0.6-1.9,1-2.9,1.3c-1,0.3-2,0.4-3.1,0.4h-2.3c-0.8,0-1.6,0-2.2,0c-0.7,0-1.2,0-1.6,0
			C-470.4,510.8-470.4,510.7-470.4,510.4L-470.4,510.4z M-466.2,493.5v13.3c0.2,0,0.4,0,0.6,0c0.2,0,0.4,0,0.6,0c0.2,0,0.4,0,0.7,0
			c0.9,0,1.8-0.1,2.7-0.5c0.8-0.3,1.5-0.7,2.1-1.4c0.6-0.6,1.1-1.4,1.3-2.2c0.3-1,0.5-2,0.5-3c0-1-0.1-1.9-0.5-2.8
			c-0.6-1.6-1.8-2.8-3.4-3.2c-0.9-0.3-1.7-0.4-2.6-0.4c-0.4,0-0.7,0-1,0C-465.6,493.5-465.9,493.5-466.2,493.5z"/>
		<path class="st2" d="M-435.4,510.6h-3.7c-0.1,0-0.2,0-0.2-0.1c-0.1-0.1-0.1-0.2-0.1-0.2c-0.4-1.6-0.7-3-1-4.3
			c-0.3-1.2-0.5-2.3-0.6-3.1c-0.2-0.9-0.3-1.6-0.4-2.2c-0.1-0.6-0.2-1.1-0.3-1.5h0c-0.2,0.9-0.4,1.7-0.6,2.6
			c-0.2,0.8-0.4,1.7-0.6,2.5c-0.2,0.8-0.4,1.8-0.7,2.8c-0.2,1-0.5,2.1-0.8,3.3c0,0.2-0.1,0.3-0.3,0.3h-3.7c-0.1,0-0.2,0-0.3-0.1
			c-0.1-0.1-0.1-0.1-0.1-0.2l-3.9-15.5c-0.1-0.2,0-0.3,0.2-0.3h3.8c0.2,0,0.3,0.1,0.3,0.2c0.4,1.8,0.7,3.3,1,4.6
			c0.3,1.3,0.5,2.4,0.6,3.3c0.1,0.9,0.3,1.6,0.4,2.2c0.1,0.6,0.2,1,0.2,1.4h0.1c0-0.3,0.1-0.6,0.1-0.9c0.1-0.4,0.2-0.9,0.3-1.5
			s0.3-1.3,0.4-2.2c0.2-0.8,0.4-1.8,0.6-2.9c0.2-1.1,0.5-2.4,0.9-3.8c0-0.1,0-0.2,0.1-0.3c0,0,0.1-0.1,0.2-0.1h3.9
			c0.1,0,0.2,0.1,0.2,0.2c0.3,1.5,0.6,2.7,0.9,3.8c0.2,1.1,0.4,2.1,0.6,2.9c0.2,0.8,0.3,1.6,0.4,2.2c0.1,0.6,0.2,1.1,0.3,1.5
			c0.1,0.3,0.1,0.7,0.1,1h0.1c0.1-0.4,0.2-0.9,0.3-1.4s0.2-1.1,0.3-1.8c0.1-0.7,0.3-1.4,0.4-2.2c0.1-0.8,0.3-1.7,0.6-2.7
			c0.2-1,0.5-2.1,0.7-3.3c0-0.2,0.1-0.3,0.3-0.3h3.5c0.2,0,0.2,0.1,0.2,0.3l-4.3,15.4c0,0.1-0.1,0.2-0.1,0.2
			C-435.2,510.6-435.3,510.6-435.4,510.6z"/>
	</g>
</g>
</svg>
