<?xml version="1.0" encoding="utf-8"?>
<!-- Generator: Adobe Illustrator 19.0.0, SVG Export Plug-In . SVG Version: 6.00 Build 0)  -->
<svg version="1.1" id="Layer_1" xmlns="http://www.w3.org/2000/svg" xmlns:xlink="http://www.w3.org/1999/xlink" x="0px" y="0px"
	 viewBox="-245 208.8 48 48" style="enable-background:new -245 208.8 48 48;" xml:space="preserve">
<style type="text/css">
	.st0{fill:#74BB11;}
	.st1{fill:#009CD9;}
	.st2{fill:#EB2084;}
</style>
<g>
	<path class="st0" d="M-202.3,210.1c-0.4-0.8-1.2-1.3-2.2-1.3h-3.7c-1.1,0-1.9,0.4-2.3,1.2l-5.5,8.1l4.9,6.6l8.5-12.2
		C-201.8,211.5-202.1,210.5-202.3,210.1"/>
	<path class="st1" d="M-231.5,209.9L-231.5,209.9c-0.9-1.1-2-1.1-2.3-1.1h-3.7c-0.9,0-1.7,0.4-2.1,1.2c-0.4,0.8-0.3,1.7,0.2,2.5
		l13.6,18.8l-15.6,21.8c-0.5,0.8-0.6,1.7-0.2,2.5c0.4,0.7,1.2,1.2,2.1,1.2h3.7c1,0,1.8-0.5,2.2-1.3l17.5-24.1L-231.5,209.9z"/>
	<path class="st2" d="M-200.4,253.3l-10.9-14.9l-4.8,6.6l8.6,11.5l0.2,0.1c0.3,0.2,0.7,0.2,1.1,0.2h3.7c0.9,0,1.6-0.4,2.1-1.1
		C-200,255-200,254.1-200.4,253.3"/>
</g>
</svg>
